<?xml version="1.0" standalone="no"?>
<!DOCTYPE svg PUBLIC "-//W3C//DTD SVG 20010904//EN"
 "http://www.w3.org/TR/2001/REC-SVG-20010904/DTD/svg10.dtd">
<svg version="1.0" xmlns="http://www.w3.org/2000/svg"
 width="1500.000000pt" height="1470.000000pt" viewBox="0 0 1500.000000 1470.000000"
 preserveAspectRatio="xMidYMid meet">

<g transform="translate(0.000000,1470.000000) scale(0.100000,-0.100000)"
fill="#000000" stroke="none">
<path d="M7361 14538 c-111 -12 -286 -57 -402 -103 -486 -192 -858 -628 -968
-1137 -48 -223 -50 -456 -5 -668 133 -627 612 -1104 1248 -1242 86 -19 132
-22 311 -22 181 0 225 3 315 22 428 93 774 325 1011 677 258 381 336 864 214
1313 -115 427 -423 800 -820 997 -295 146 -584 199 -904 163z"/>
<path d="M1976 10859 c-605 -39 -976 -199 -1076 -466 -56 -151 -23 -339 83
-459 156 -177 422 -266 1142 -379 545 -87 635 -117 651 -216 12 -75 -75 -143
-221 -174 -95 -20 -389 -24 -500 -6 -151 25 -257 77 -291 143 -10 20 -17 56
-17 91 l0 57 -456 -2 -456 -3 -3 -27 c-2 -15 3 -66 12 -113 44 -259 208 -409
547 -500 382 -102 1150 -112 1609 -19 166 33 349 95 451 152 99 55 213 164
248 235 122 252 18 518 -257 660 -190 98 -372 143 -1017 251 -365 61 -423 74
-494 111 -60 30 -81 58 -81 106 0 104 128 149 425 149 193 -1 295 -17 384 -62
72 -36 111 -82 111 -129 l0 -29 440 0 c412 0 440 1 440 18 0 58 -25 157 -55
218 -61 124 -186 221 -371 287 -262 94 -768 136 -1248 106z"/>
<path d="M4170 9760 l0 -1040 1270 0 1270 0 0 230 0 230 -800 0 -800 0 0 200
0 200 715 0 715 0 0 220 0 220 -715 0 -715 0 0 165 0 165 770 0 770 0 0 225 0
225 -1240 0 -1240 0 0 -1040z"/>
<path d="M7172 9763 l3 -1038 445 0 445 0 5 690 5 690 604 -693 605 -692 610
2 611 3 3 1038 2 1037 -450 0 -450 0 0 -690 0 -691 -627 690 -628 690 -593 0
-592 1 2 -1037z"/>
<path d="M12083 10788 c-6 -7 -261 -375 -568 -818 -307 -443 -624 -899 -705
-1015 -80 -115 -149 -216 -153 -222 -7 -10 88 -13 460 -13 l468 0 110 185 110
185 723 -3 724 -2 101 -182 102 -183 522 0 522 0 -687 1038 -688 1037 -516 3
c-405 2 -518 -1 -525 -10z m701 -876 c114 -195 206 -356 203 -358 -2 -2 -204
-3 -450 -2 l-446 3 231 368 c182 290 234 365 243 355 6 -7 105 -172 219 -366z"/>
<path d="M105 7573 c4 -313 8 -568 8 -569 1 0 945 3 2097 8 1152 5 2113 6
2135 3 98 -13 207 -91 251 -177 34 -67 51 -187 38 -269 -9 -60 -100 -221
-1306 -2331 l-1296 -2268 66 -64 c162 -154 777 -726 782 -726 6 0 4020 6943
4020 6953 0 4 -1531 7 -3401 7 l-3402 0 8 -567z"/>
<path d="M8192 8072 c530 -934 3925 -6872 3928 -6872 15 0 865 775 864 789 0
9 -589 1033 -1309 2275 l-1308 2259 -5 78 c-8 143 31 265 107 331 19 17 64 45
100 61 l64 30 2129 -7 2128 -6 -2 557 -3 558 -3363 3 -3363 2 33 -58z"/>
<path d="M5642 3803 c-1018 -1748 -1852 -3182 -1853 -3187 0 -9 980 -491 985
-484 1 1 553 934 1226 2073 673 1139 1233 2084 1246 2101 12 17 55 48 96 70
71 38 76 39 173 39 93 0 105 -2 165 -32 36 -17 74 -40 85 -51 11 -10 574 -960
1250 -2110 677 -1151 1234 -2092 1239 -2092 5 0 235 118 512 262 l503 263 -26
45 c-84 143 -3737 6266 -3743 6273 -4 4 -840 -1422 -1858 -3170z"/>
</g>
</svg>
